HIERARCHY
ROOT Hips
{
	OFFSET 0.000000 0.000000 0.000000
	CHANNELS 6 Xposition Yposition Zposition Zrotation Yrotation Xrotation 
	JOINT LHipJoint
	{
		OFFSET 0.000000 0.000000 0.000000
		CHANNELS 3 Zrotation Yrotation Xrotation
		JOINT LeftUpLeg
		{
			OFFSET 1.363060 -1.794630 0.839290
			CHANNELS 3 Zrotation Yrotation Xrotation
			JOINT LeftLeg
			{
				OFFSET 2.448110 -6.726130 0.000000
				CHANNELS 3 Zrotation Yrotation Xrotation
				JOINT LeftFoot
				{
					OFFSET 2.562200 -7.039590 0.000000
					CHANNELS 3 Zrotation Yrotation Xrotation
					JOINT LeftToeBase
					{
						OFFSET 0.157640 -0.433110 2.322550
						CHANNELS 3 Zrotation Yrotation Xrotation
						End Site
						{
							OFFSET 0.000000 0.000000 0.000000
						}
					}
				}
			}
		}
	}
	JOINT RHipJoint
	{
		OFFSET 0.000000 0.000000 0.000000
		CHANNELS 3 Zrotation Yrotation Xrotation
		JOINT RightUpLeg
		{
			OFFSET -1.305520 -1.794630 0.839290
			CHANNELS 3 Zrotation Yrotation Xrotation
			JOINT RightLeg
			{
				OFFSET -2.542530 -6.985550 0.000000
				CHANNELS 3 Zrotation Yrotation Xrotation
				JOINT RightFoot
				{
					OFFSET -2.568260 -7.056230 0.000000
					CHANNELS 3 Zrotation Yrotation Xrotation
					JOINT RightToeBase
					{
						OFFSET -0.164730 -0.452590 2.363150
						CHANNELS 3 Zrotation Yrotation Xrotation
						End Site
						{
							OFFSET 0.000000 0.000000 0.000000
						}
					}
				}
			}
		}
	}
}
MOTION
Frames: 28
Frame Time: 0.008333
1.042183 16.731370 -1.541460 6.614660 81.594042 5.473254 -10.552426 2.363240 -0.172095 -10.516854 8.684288 -3.100935 -1.968237 0.644722 26.297071 2.384565 10.748072 -21.503082 -3.148000 0.000000 -26.899900 10.242993 -0.778540 -1.955831 6.455612 -13.302529 -29.927586 0.469524 -3.877046 56.191838 -3.124032 -14.204560 -19.105543 2.631600 0.000000 -0.075900
1.292663 16.746233 -1.520461 5.572635 82.072459 4.532719 -10.572658 2.471708 -0.079893 -10.130546 8.659059 -1.465264 -1.952162 0.542606 24.576681 2.345034 10.610448 -21.016489 -3.009900 -0.000000 -28.297300 10.041111 -0.671884 -1.888624 7.456930 -13.700015 -31.080114 0.685999 -3.693482 53.695335 -3.141152 -13.979227 -18.725267 2.479500 -0.000000 -1.482800
1.544690 16.759236 -1.497781 4.377053 82.562638 3.450917 -10.595330 2.584006 0.009965 -9.716724 8.643768 0.138906 -1.928153 0.446915 22.871675 2.298451 10.466979 -20.442962 -2.852501 0.000000 -29.900400 9.836376 -0.582975 -1.801126 8.444717 -14.023865 -32.093092 0.919017 -3.490689 50.952454 -3.133140 -13.605625 -18.303457 2.295400 0.000000 -2.996699
1.798007 16.770128 -1.473121 3.005229 83.064089 2.202632 -10.620803 2.699712 0.090037 -9.268548 8.654276 1.698462 -1.897534 0.361389 21.220192 2.241417 10.297868 -19.782257 -2.672700 0.000000 -31.692100 9.632220 -0.509441 -1.689277 9.401083 -14.244158 -32.951744 1.167597 -3.265451 47.974883 -3.103919 -13.107092 -17.874220 2.096000 0.000000 -4.547800
2.052466 16.778864 -1.446203 1.423777 83.579205 0.753628 -10.649220 2.818316 0.154656 -8.779292 8.701070 3.197548 -1.861790 0.289675 19.660977 2.170416 10.082370 -19.030527 -2.467800 -0.000000 -33.651200 9.432045 -0.447611 -1.548778 10.304044 -14.336961 -33.644693 1.429437 -3.013323 44.773817 -3.058532 -12.516008 -17.458921 1.894199 0.000000 -6.115900
2.308014 16.785560 -1.416809 -0.415522 84.112590 -0.944195 -10.680227 2.939147 0.200138 -8.244263 8.787413 4.619892 -1.822279 0.235162 18.230954 2.082781 9.803807 -18.181088 -2.236600 0.000001 -35.759000 9.239357 -0.392920 -1.375518 11.129405 -14.286425 -34.164209 1.700391 -2.728894 41.358471 -3.002614 -11.872778 -17.060138 1.697400 -0.000001 -7.736400
2.564680 16.790496 -1.384822 -2.591193 84.670570 -2.969387 -10.712849 3.061318 0.224911 -7.662363 8.908328 5.951201 -1.779957 0.200784 16.962125 1.977336 9.452722 -17.225196 -1.980400 0.000000 -38.004001 9.058147 -0.340385 -1.166117 11.851336 -14.086306 -34.505175 1.973782 -2.406445 37.737734 -2.941963 -11.225274 -16.659397 1.507600 0.000000 -9.496699
2.822562 16.794090 -1.350128 -5.225819 85.259035 -5.445181 -10.745370 3.183663 0.229191 -7.036514 9.050875 7.182156 -1.735078 0.188795 15.878249 1.854891 9.029407 -16.152166 -1.703100 -0.000000 -40.384101 8.893265 -0.285225 -0.918814 12.443952 -13.741346 -34.664707 2.240045 -2.041110 33.922293 -2.881897 -10.626344 -16.217874 1.321301 -0.000000 -11.527000
3.081805 16.796832 -1.312739 -8.533800 85.883632 -8.589826 -10.775321 3.304552 0.214495 -6.375473 9.195560 8.311217 -1.687068 0.200544 14.992043 1.718468 8.544411 -14.951775 -1.411200 -0.000000 -42.904500 8.750257 -0.223230 -0.635059 12.883565 -13.270120 -34.643428 2.487353 -1.630743 29.933284 -2.827143 -10.128654 -15.693082 1.133400 0.000001 -13.889600
3.342545 16.799237 -1.272647 -12.916346 86.548083 -12.811899 -10.799863 3.422129 0.183569 -5.692831 9.318723 9.347402 -1.634243 0.236265 14.303742 1.573122 8.018280 -13.614049 -1.112800 0.000000 -45.575400 8.634887 -0.152112 -0.320502 13.151113 -12.706313 -34.446364 2.701956 -1.178548 25.810124 -2.780636 -9.778305 -15.038052 0.935900 -0.000000 -16.661100
3.604935 16.801736 -1.229901 -19.226874 87.254270 -18.977443 -10.816872 3.533992 0.139979 -5.007110 9.395348 10.309701 -1.573828 0.294788 13.801168 1.425458 7.479296 -12.131216 -0.816500 -0.000000 -48.407500 8.550394 -0.072230 0.013030 13.235888 -12.102065 -34.087642 2.871069 -0.695854 21.626011 -2.743275 -9.601372 -14.232390 0.723000 0.000000 -19.763701
3.869126 16.804684 -1.184655 -29.642080 87.999413 -29.280210 -10.829716 3.637469 0.088063 -4.341097 9.401801 11.225491 -1.501917 0.373282 13.461590 1.282688 6.959893 -10.496602 -0.529800 -0.000001 -51.410199 8.490503 0.010705 0.347108 13.139452 -11.528141 -33.594372 2.985074 -0.203672 17.494709 -2.712924 -9.594419 -13.285171 0.491800 -0.000000 -23.053900
4.135210 16.808387 -1.137186 -50.739344 88.747688 -50.315691 -10.867484 3.736416 0.032722 -3.729927 9.325053 12.122144 -1.417165 0.468399 13.254014 1.151718 6.493347 -8.705632 -0.257200 0.000000 -54.585901 8.419929 0.084858 0.656254 12.870606 -11.067495 -33.009377 3.038429 0.271685 13.571882 -2.684123 -9.713675 -12.250703 0.247800 -0.000001 -26.273501
4.403312 16.813111 -1.087973 -95.094173 89.263871 -94.671248 -10.996913 3.883909 -0.015331 -3.241204 9.194925 13.015579 -1.346350 0.591255 13.134853 1.039846 6.117122 -6.759153 0.000000 0.000000 -57.935100 8.301438 0.167023 0.896205 12.457922 -10.768744 -32.376617 3.029326 0.716876 10.025574 -2.648059 -9.885626 -11.182321 -0.000300 0.000000 -29.358400
4.673457 16.819111 -1.037655 -136.504335 89.226739 -136.155908 -11.078914 4.096558 -0.037657 -2.811283 9.025366 13.933974 -1.301346 0.753667 13.073082 0.954449 5.855650 -4.671427 0.244100 0.000000 -61.442700 8.316745 0.314448 1.037965 12.078237 -10.604386 -31.712123 3.002862 1.106324 6.996528 -2.603611 -10.052769 -10.162642 -0.232900 0.000000 -32.123300
4.945686 16.826495 -0.986889 -154.696328 88.798406 -154.499921 -11.041254 4.272854 -0.047209 -2.332092 8.769715 14.885177 -1.220023 0.919857 13.081645 0.893820 5.681358 -2.450183 0.478400 0.000000 -65.073599 8.437232 0.451820 1.128583 11.781355 -10.583849 -31.035839 2.978040 1.401029 4.543815 -2.563772 -10.230780 -9.290881 -0.431700 -0.000000 -34.438900
5.219969 16.835185 -0.936195 -162.822968 88.255130 -162.841966 -10.991472 4.425178 -0.052145 -1.849934 8.459527 15.850986 -1.110907 1.085048 13.147728 0.857702 5.586219 -0.100672 0.707200 0.000000 -68.761700 8.541413 0.549629 1.174680 11.522819 -10.659206 -30.359870 2.940993 1.610682 2.690191 -2.540160 -10.431967 -8.630591 -0.584200 0.000000 -36.209099
5.496549 16.844825 -0.886056 -166.771142 87.741561 -167.043288 -10.958404 4.572185 -0.053624 -1.359002 8.156805 16.789095 -0.987244 1.251294 13.276826 0.842954 5.531822 2.370533 0.929000 -0.000000 -72.447300 8.616209 0.614186 1.196568 11.301405 -10.698755 -29.678286 2.889580 1.751297 1.407986 -2.550983 -10.715717 -8.210031 -0.688800 -0.000000 -37.360601
5.775199 16.854763 -0.836503 -168.736201 87.298516 -169.288781 -10.940555 4.715687 -0.052513 -0.861242 7.859333 17.697238 -0.853244 1.417867 13.464998 0.850900 5.510378 4.950248 1.143600 0.000000 -75.990900 8.667053 0.652845 1.202317 11.113792 -10.641743 -28.978489 2.825165 1.831422 0.671869 -2.604129 -11.103653 -8.053777 -0.741000 -0.000000 -37.765200
6.056024 16.864163 -0.787626 -169.528289 86.941921 -170.371821 -10.939454 4.855442 -0.050535 -0.343276 7.588101 18.549933 -0.711476 1.582384 13.726747 0.878772 5.481178 7.633508 1.342300 -0.000000 -79.273100 8.695130 0.668294 1.207473 10.954680 -10.423974 -28.259938 2.747533 1.859622 0.439590 -2.705555 -11.620089 -8.157107 -0.740499 0.000000 -37.360901
6.338976 16.872064 -0.739298 -169.559662 86.671411 -170.691332 -10.956454 4.990657 -0.046514 0.202553 7.353066 19.320466 -0.564129 1.741785 14.082491 0.924409 5.405534 10.410491 1.510200 -0.000000 -82.151200 8.701134 0.663466 1.222077 10.821952 -10.016480 -27.540358 2.657986 1.841125 0.681527 -2.854420 -12.261714 -8.501388 -0.685700 -0.000001 -36.115000
6.623953 16.877526 -0.691450 -169.024947 86.475801 -170.435741 -10.993769 5.119855 -0.039414 0.784786 7.156396 19.992227 -0.413096 1.892985 14.551686 0.986289 5.247167 13.269024 1.627100 -0.000000 -84.482800 8.685175 0.641602 1.244956 10.725367 -9.436959 -26.841293 2.561195 1.778765 1.368810 -3.040336 -12.989337 -9.047758 -0.574900 -0.000001 -34.058200
6.910693 16.879655 -0.643963 -168.051345 86.339375 -169.728608 -11.053368 5.241635 -0.026202 1.408944 6.997461 20.545613 -0.260785 2.032197 15.157604 1.063306 4.975825 16.184537 1.669200 -0.000000 -86.122300 8.648410 0.605620 1.270705 10.678229 -8.731453 -26.197091 2.463329 1.673205 2.480363 -3.246984 -13.743735 -9.742181 -0.410799 -0.000000 -31.303900
7.198784 16.877700 -0.596811 -166.728948 86.242769 -168.662616 -11.136477 5.353997 -0.004295 2.077108 6.870362 20.970160 -0.110242 2.155685 15.919932 1.154901 4.576365 19.118296 1.615099 0.000000 -86.927901 8.593732 0.557843 1.286266 10.697396 -7.980525 -25.640337 2.371924 1.523948 3.991957 -3.450864 -14.444955 -10.513030 -0.204200 -0.000000 -28.060500
7.487761 16.871142 -0.549809 -165.202676 86.167499 -167.383318 -11.241515 5.455468 0.029910 2.783976 6.772523 21.247090 0.034003 2.259772 16.864509 1.259565 4.050081 22.006406 1.450900 0.000000 -86.764101 8.528141 0.499508 1.279870 10.788920 -7.273226 -25.211541 2.292053 1.329451 5.885283 -3.627028 -15.015015 -11.278091 0.022700 -0.000000 -24.661000
7.776787 16.859570 -0.503097 -163.568962 86.095607 -165.998232 -11.365823 5.543663 0.075515 3.522154 6.695004 21.381065 0.167213 2.343288 18.003556 1.375507 3.429740 24.772285 1.183400 0.000000 -85.523500 8.459965 0.431214 1.232941 10.956712 -6.717645 -24.922643 2.227731 1.090788 8.115789 -3.747205 -15.370619 -11.948996 0.239600 0.000000 -21.446900
8.065012 16.842842 -0.456713 -161.961898 86.014324 -164.649796 -11.503821 5.617087 0.129511 4.279746 6.636754 21.371304 0.284299 2.407522 19.350540 1.498972 2.773854 27.320461 0.842200 -0.000001 -83.152300 8.399824 0.353367 1.133443 11.189106 -6.399735 -24.778400 2.178080 0.811761 10.629862 -3.789740 -15.453195 -12.450920 0.415000 -0.000000 -18.727800
8.351537 16.821110 -0.410601 -160.494564 85.918047 -163.449880 -11.649407 5.675632 0.186772 5.049864 6.612199 21.199154 0.381521 2.456530 20.927517 1.624257 2.155780 29.542487 0.476200 -0.000000 -79.667200 8.357038 0.266589 0.983056 11.461070 -6.349137 -24.777379 2.136494 0.500378 13.362750 -3.747136 -15.252982 -12.733320 0.525500 0.000000 -16.737001
